<?xml version="1.0" encoding="UTF-8" standalone="no"?>
<svg
   xmlns:dc="http://purl.org/dc/elements/1.1/"
   xmlns:cc="http://creativecommons.org/ns#"
   xmlns:rdf="http://www.w3.org/1999/02/22-rdf-syntax-ns#"
   xmlns:svg="http://www.w3.org/2000/svg"
   xmlns="http://www.w3.org/2000/svg"
   xmlns:sodipodi="http://sodipodi.sourceforge.net/DTD/sodipodi-0.dtd"
   xmlns:inkscape="http://www.inkscape.org/namespaces/inkscape"
   fill-opacity="0"
   color-rendering="auto"
   color-interpolation="auto"
   text-rendering="auto"
   stroke="rgb(0,0,0)"
   stroke-linecap="square"
   width="587"
   stroke-miterlimit="10"
   shape-rendering="auto"
   stroke-opacity="0"
   fill="rgb(0,0,0)"
   stroke-dasharray="none"
   font-weight="normal"
   stroke-width="1"
   height="504"
   font-family="'Dialog'"
   font-style="normal"
   stroke-linejoin="miter"
   font-size="12px"
   stroke-dashoffset="0"
   image-rendering="auto"
   id="svg2"
   version="1.1"
   inkscape:version="0.48.5 r10040"
   sodipodi:docname="use_case.svg">
  <metadata
     id="metadata174">
    <rdf:RDF>
      <cc:Work
         rdf:about="">
        <dc:format>image/svg+xml</dc:format>
        <dc:type
           rdf:resource="http://purl.org/dc/dcmitype/StillImage" />
      </cc:Work>
    </rdf:RDF>
  </metadata>
  <sodipodi:namedview
     pagecolor="#ffffff"
     bordercolor="#666666"
     borderopacity="1"
     objecttolerance="10"
     gridtolerance="10"
     guidetolerance="10"
     inkscape:pageopacity="0"
     inkscape:pageshadow="2"
     inkscape:window-width="1920"
     inkscape:window-height="1018"
     id="namedview172"
     showgrid="false"
     inkscape:zoom="0.93650794"
     inkscape:cx="415.69561"
     inkscape:cy="289.704"
     inkscape:window-x="-8"
     inkscape:window-y="-8"
     inkscape:window-maximized="1"
     inkscape:current-layer="g5" />
  <!--Generated by the Batik Graphics2D SVG Generator-->
  <defs
     id="genericDefs" />
  <g
     id="g5">
    <defs
       id="defs1">
      <clipPath
         clipPathUnits="userSpaceOnUse"
         id="clipPath1">
        <path
           d="M-7 -7 L424 -7 L424 509 L-7 509 L-7 -7 Z"
           id="path9" />
      </clipPath>
      <clipPath
         clipPathUnits="userSpaceOnUse"
         id="clipPath2">
        <path
           d="M0 0 L0 498 L413 498 L413 0 Z"
           id="path12" />
      </clipPath>
      <clipPath
         clipPathUnits="userSpaceOnUse"
         id="clipPath3">
        <path
           d="M-7 -7 L209 -7 L209 74 L-7 74 L-7 -7 Z"
           id="path15" />
      </clipPath>
      <clipPath
         clipPathUnits="userSpaceOnUse"
         id="clipPath4">
        <path
           d="M0 0 L0 63 L198 63 L198 0 Z"
           id="path18" />
      </clipPath>
      <clipPath
         clipPathUnits="userSpaceOnUse"
         id="clipPath5">
        <path
           d="M-7 -7 L197 -7 L197 73 L-7 73 L-7 -7 Z"
           id="path21" />
      </clipPath>
      <clipPath
         clipPathUnits="userSpaceOnUse"
         id="clipPath6">
        <path
           d="M0 0 L0 62 L186 62 L186 0 Z"
           id="path24" />
      </clipPath>
      <clipPath
         clipPathUnits="userSpaceOnUse"
         id="clipPath7">
        <path
           d="M-7 -7 L178 -7 L178 68 L-7 68 L-7 -7 Z"
           id="path27" />
      </clipPath>
      <clipPath
         clipPathUnits="userSpaceOnUse"
         id="clipPath8">
        <path
           d="M0 0 L0 57 L167 57 L167 0 Z"
           id="path30" />
      </clipPath>
      <clipPath
         clipPathUnits="userSpaceOnUse"
         id="clipPath9">
        <path
           d="M-7 -7 L264 -7 L264 81 L-7 81 L-7 -7 Z"
           id="path33" />
      </clipPath>
      <clipPath
         clipPathUnits="userSpaceOnUse"
         id="clipPath10">
        <path
           d="M0 0 L0 70 L253 70 L253 0 Z"
           id="path36" />
      </clipPath>
      <clipPath
         clipPathUnits="userSpaceOnUse"
         id="clipPath11">
        <path
           d="M-7 -7 L41 -7 L41 71 L-7 71 L-7 -7 Z"
           id="path39" />
      </clipPath>
      <clipPath
         clipPathUnits="userSpaceOnUse"
         id="clipPath12">
        <path
           d="M-75 -15 L150 -15 L150 30 L-75 30 L-75 -15 Z"
           id="path42" />
      </clipPath>
      <clipPath
         clipPathUnits="userSpaceOnUse"
         id="clipPath13">
        <path
           d="M0 0 L375 0 L375 196 L0 196 L0 0 Z"
           id="path45" />
      </clipPath>
      <clipPath
         clipPathUnits="userSpaceOnUse"
         id="clipPath14">
        <path
           d="M0 0 L0 184 L73 184 L73 196 L375 196 L375 0 Z"
           id="path48" />
      </clipPath>
      <clipPath
         clipPathUnits="userSpaceOnUse"
         id="clipPath15">
        <path
           d="M0 0 L326 0 L326 114 L0 114 L0 0 Z"
           id="path51" />
      </clipPath>
      <clipPath
         clipPathUnits="userSpaceOnUse"
         id="clipPath16">
        <path
           d="M0 0 L0 102 L73 102 L73 114 L326 114 L326 0 Z"
           id="path54" />
      </clipPath>
      <clipPath
         clipPathUnits="userSpaceOnUse"
         id="clipPath17">
        <path
           d="M0 0 L410 0 L410 195 L0 195 L0 0 Z"
           id="path57" />
      </clipPath>
      <clipPath
         clipPathUnits="userSpaceOnUse"
         id="clipPath18">
        <path
           d="M0 0 L0 92 L73 92 L73 107 L0 107 L0 195 L410 195 L410 0 Z"
           id="path60" />
      </clipPath>
      <clipPath
         clipPathUnits="userSpaceOnUse"
         id="clipPath19">
        <path
           d="M0 0 L290 0 L290 265 L0 265 L0 0 Z"
           id="path63" />
      </clipPath>
      <clipPath
         clipPathUnits="userSpaceOnUse"
         id="clipPath20">
        <path
           d="M0 0 L0 92 L73 92 L73 107 L0 107 L0 265 L290 265 L290 0 Z"
           id="path66" />
      </clipPath>
    </defs>
    <g
       fill="white"
       text-rendering="geometricPrecision"
       fill-opacity="1"
       stroke-opacity="1"
       stroke="white"
       id="g68">
      <rect
         x="0"
         width="587"
         height="504"
         y="0"
         stroke="none"
         id="rect70" />
    </g>
    <g
       font-size="11px"
       transform="translate(170,2)"
       fill-opacity="1"
       fill="rgb(122,207,245)"
       text-rendering="geometricPrecision"
       image-rendering="optimizeQuality"
       font-family="sans-serif"
       stroke="rgb(122,207,245)"
       stroke-opacity="1"
       id="g72">
      <rect
         x="0"
         width="412"
         height="497"
         y="0"
         clip-path="url(#clipPath1)"
         stroke="none"
         id="rect74" />
    </g>
    <g
       stroke-linecap="butt"
       font-size="11px"
       transform="translate(170,2)"
       fill-opacity="1"
       fill="black"
       text-rendering="geometricPrecision"
       image-rendering="optimizeQuality"
       font-family="sans-serif"
       stroke-linejoin="round"
       stroke="black"
       stroke-opacity="1"
       stroke-miterlimit="0"
       id="g76">
      <rect
         fill="none"
         x="0"
         width="412"
         height="497"
         y="0"
         clip-path="url(#clipPath1)"
         id="rect78" />
    </g>
    <g
       font-size="11px"
       transform="translate(170,2)"
       fill-opacity="1"
       fill="black"
       text-rendering="geometricPrecision"
       image-rendering="optimizeQuality"
       font-family="sans-serif"
       stroke="black"
       stroke-opacity="1"
       id="g80">
      <text
         x="164"
         xml:space="preserve"
         y="12"
         clip-path="url(#clipPath2)"
         stroke="none"
         id="text82">Studentský portál</text>
    </g>
    <g
       font-size="11px"
       transform="translate(298,72)"
       fill-opacity="1"
       fill="rgb(122,207,245)"
       text-rendering="geometricPrecision"
       image-rendering="optimizeQuality"
       font-family="sans-serif"
       stroke="rgb(122,207,245)"
       stroke-opacity="1"
       id="g84">
      <ellipse
         rx="99"
         ry="31.5"
         clip-path="url(#clipPath3)"
         cx="99"
         cy="31.5"
         stroke="none"
         id="ellipse86"
         d="M 198,31.5 C 198,48.89697 153.67619,63 99,63 44.32381,63 0,48.89697 0,31.5 0,14.10303 44.32381,0 99,0 c 54.67619,0 99,14.10303 99,31.5 z" />
    </g>
    <g
       stroke-linecap="butt"
       font-size="11px"
       transform="translate(298,72)"
       fill-opacity="1"
       fill="black"
       text-rendering="geometricPrecision"
       image-rendering="optimizeQuality"
       font-family="sans-serif"
       stroke-linejoin="round"
       stroke="black"
       stroke-opacity="1"
       stroke-miterlimit="0"
       id="g88">
      <ellipse
         rx="99"
         fill="none"
         ry="31.5"
         clip-path="url(#clipPath3)"
         cx="99"
         cy="31.5"
         id="ellipse90"
         d="M 198,31.5 C 198,48.89697 153.67619,63 99,63 44.32381,63 0,48.89697 0,31.5 0,14.10303 44.32381,0 99,0 c 54.67619,0 99,14.10303 99,31.5 z" />
    </g>
    <g
       font-size="11px"
       transform="translate(298,72)"
       fill-opacity="1"
       fill="black"
       text-rendering="geometricPrecision"
       image-rendering="optimizeQuality"
       font-family="sans-serif"
       stroke="black"
       stroke-opacity="1"
       id="g92">
      <text
         x="15"
         xml:space="preserve"
         y="36"
         clip-path="url(#clipPath4)"
         stroke="none"
         id="text94">Zobrazení přehledu vysokých škol</text>
    </g>
    <g
       font-size="11px"
       transform="translate(276,177)"
       fill-opacity="1"
       fill="rgb(122,207,245)"
       text-rendering="geometricPrecision"
       image-rendering="optimizeQuality"
       font-family="sans-serif"
       stroke="rgb(122,207,245)"
       stroke-opacity="1"
       id="g96">
      <ellipse
         rx="93"
         ry="31"
         clip-path="url(#clipPath5)"
         cx="93"
         cy="31"
         stroke="none"
         id="ellipse98"
         d="M 186,31 C 186,48.120827 144.36248,62 93,62 41.637518,62 0,48.120827 0,31 0,13.879173 41.637518,0 93,0 c 51.36248,0 93,13.879173 93,31 z" />
    </g>
    <g
       stroke-linecap="butt"
       font-size="11px"
       transform="translate(276,177)"
       fill-opacity="1"
       fill="black"
       text-rendering="geometricPrecision"
       image-rendering="optimizeQuality"
       font-family="sans-serif"
       stroke-linejoin="round"
       stroke="black"
       stroke-opacity="1"
       stroke-miterlimit="0"
       id="g100">
      <ellipse
         rx="93"
         fill="none"
         ry="31"
         clip-path="url(#clipPath5)"
         cx="93"
         cy="31"
         id="ellipse102"
         d="M 186,31 C 186,48.120827 144.36248,62 93,62 41.637518,62 0,48.120827 0,31 0,13.879173 41.637518,0 93,0 c 51.36248,0 93,13.879173 93,31 z" />
    </g>
    <g
       font-size="11px"
       transform="translate(276,177)"
       fill-opacity="1"
       fill="black"
       text-rendering="geometricPrecision"
       image-rendering="optimizeQuality"
       font-family="sans-serif"
       stroke="black"
       stroke-opacity="1"
       id="g104">
      <text
         x="15"
         xml:space="preserve"
         y="35"
         clip-path="url(#clipPath6)"
         stroke="none"
         id="text106">Fulltextové vyhledávání obsahu</text>
    </g>
    <g
       font-size="11px"
       transform="translate(360,281)"
       fill-opacity="1"
       fill="rgb(122,207,245)"
       text-rendering="geometricPrecision"
       image-rendering="optimizeQuality"
       font-family="sans-serif"
       stroke="rgb(122,207,245)"
       stroke-opacity="1"
       id="g108">
      <ellipse
         rx="83.5"
         ry="28.5"
         clip-path="url(#clipPath7)"
         cx="83.5"
         cy="28.5"
         stroke="none"
         id="ellipse110"
         d="M 167,28.5 C 167,44.240115 129.61578,57 83.5,57 37.384223,57 0,44.240115 0,28.5 0,12.759885 37.384223,0 83.5,0 129.61578,0 167,12.759885 167,28.5 z" />
    </g>
    <g
       stroke-linecap="butt"
       font-size="11px"
       transform="translate(360,281)"
       fill-opacity="1"
       fill="black"
       text-rendering="geometricPrecision"
       image-rendering="optimizeQuality"
       font-family="sans-serif"
       stroke-linejoin="round"
       stroke="black"
       stroke-opacity="1"
       stroke-miterlimit="0"
       id="g112">
      <ellipse
         rx="83.5"
         fill="none"
         ry="28.5"
         clip-path="url(#clipPath7)"
         cx="83.5"
         cy="28.5"
         id="ellipse114"
         d="M 167,28.5 C 167,44.240115 129.61578,57 83.5,57 37.384223,57 0,44.240115 0,28.5 0,12.759885 37.384223,0 83.5,0 129.61578,0 167,12.759885 167,28.5 z" />
    </g>
    <g
       font-size="11px"
       transform="translate(360,281)"
       fill-opacity="1"
       fill="black"
       text-rendering="geometricPrecision"
       image-rendering="optimizeQuality"
       font-family="sans-serif"
       stroke="black"
       stroke-opacity="1"
       id="g116">
      <text
         x="22"
         xml:space="preserve"
         y="33"
         clip-path="url(#clipPath8)"
         stroke="none"
         id="text118">Filtrování podle kategorií</text>
    </g>
    <g
       font-size="11px"
       transform="translate(216,365)"
       fill-opacity="1"
       fill="rgb(122,207,245)"
       text-rendering="geometricPrecision"
       image-rendering="optimizeQuality"
       font-family="sans-serif"
       stroke="rgb(122,207,245)"
       stroke-opacity="1"
       id="g120">
      <ellipse
         rx="126.5"
         ry="35"
         clip-path="url(#clipPath9)"
         cx="126.5"
         cy="35"
         stroke="none"
         id="ellipse122"
         d="M 253,35 C 253,54.329966 196.36402,70 126.5,70 56.635979,70 0,54.329966 0,35 0,15.670034 56.635979,0 126.5,0 196.36402,0 253,15.670034 253,35 z" />
    </g>
    <g
       stroke-linecap="butt"
       font-size="11px"
       transform="translate(216,365)"
       fill-opacity="1"
       fill="black"
       text-rendering="geometricPrecision"
       image-rendering="optimizeQuality"
       font-family="sans-serif"
       stroke-linejoin="round"
       stroke="black"
       stroke-opacity="1"
       stroke-miterlimit="0"
       id="g124">
      <ellipse
         rx="126.5"
         fill="none"
         ry="35"
         clip-path="url(#clipPath9)"
         cx="126.5"
         cy="35"
         id="ellipse126"
         d="M 253,35 C 253,54.329966 196.36402,70 126.5,70 56.635979,70 0,54.329966 0,35 0,15.670034 56.635979,0 126.5,0 196.36402,0 253,15.670034 253,35 z" />
    </g>
    <g
       font-size="11px"
       transform="translate(216,365)"
       fill-opacity="1"
       fill="black"
       text-rendering="geometricPrecision"
       image-rendering="optimizeQuality"
       font-family="sans-serif"
       stroke="black"
       stroke-opacity="1"
       id="g128">
      <text
         x="13"
         xml:space="preserve"
         y="39"
         clip-path="url(#clipPath10)"
         stroke="none"
         id="text130">Zobrazení všech informací o konkrétní instituci</text>
    </g>
    <g
       font-size="11px"
       transform="translate(24,200)"
       fill-opacity="1"
       fill="rgb(122,207,245)"
       text-rendering="geometricPrecision"
       image-rendering="optimizeQuality"
       font-family="sans-serif"
       stroke="rgb(122,207,245)"
       stroke-opacity="1"
       id="g132">
      <circle
         r="7.5"
         clip-path="url(#clipPath11)"
         cx="14.5"
         cy="7.5"
         stroke="none"
         id="circle134"
         d="M 22,7.5 C 22,11.642136 18.642136,15 14.5,15 10.357864,15 7,11.642136 7,7.5 7,3.3578644 10.357864,0 14.5,0 18.642136,0 22,3.3578644 22,7.5 z" />
    </g>
    <g
       stroke-linecap="butt"
       font-size="11px"
       transform="translate(24,200)"
       fill-opacity="1"
       fill="black"
       text-rendering="geometricPrecision"
       image-rendering="optimizeQuality"
       font-family="sans-serif"
       stroke-linejoin="round"
       stroke="black"
       stroke-opacity="1"
       stroke-miterlimit="0"
       id="g136">
      <circle
         fill="none"
         r="7.5"
         clip-path="url(#clipPath11)"
         cx="14.5"
         cy="7.5"
         id="circle138"
         d="M 22,7.5 C 22,11.642136 18.642136,15 14.5,15 10.357864,15 7,11.642136 7,7.5 7,3.3578644 10.357864,0 14.5,0 18.642136,0 22,3.3578644 22,7.5 z" />
      <line
         y2="40"
         fill="none"
         x1="15"
         clip-path="url(#clipPath11)"
         x2="15"
         y1="15"
         id="line140" />
      <line
         y2="24"
         fill="none"
         x1="0"
         clip-path="url(#clipPath11)"
         x2="30"
         y1="24"
         id="line142" />
      <line
         y2="60"
         fill="none"
         x1="15"
         clip-path="url(#clipPath11)"
         x2="0"
         y1="40"
         id="line144" />
      <line
         y2="60"
         fill="none"
         x1="15"
         clip-path="url(#clipPath11)"
         x2="30"
         y1="40"
         id="line146" />
    </g>
    <g
       font-size="11px"
       transform="translate(2,260)"
       fill-opacity="1"
       fill="black"
       text-rendering="geometricPrecision"
       image-rendering="optimizeQuality"
       font-family="sans-serif"
       stroke="black"
       stroke-opacity="1"
       id="g148">
      <text
         x="10"
         xml:space="preserve"
         y="12"
         clip-path="url(#clipPath12)"
         stroke="none"
         id="text150">Návštěvník</text>
    </g>
    <g
       stroke-linecap="butt"
       font-size="11px"
       transform="translate(4,76)"
       fill-opacity="1"
       fill="black"
       text-rendering="geometricPrecision"
       image-rendering="optimizeQuality"
       font-family="sans-serif"
       stroke-linejoin="round"
       stroke="black"
       stroke-opacity="1"
       id="g152">
      <line
         y2="50"
         fill="none"
         x1="50"
         clip-path="url(#clipPath14)"
         x2="321"
         y1="142"
         id="line154" />
    </g>
    <g
       stroke-linecap="butt"
       font-size="11px"
       transform="translate(4,158)"
       fill-opacity="1"
       fill="black"
       text-rendering="geometricPrecision"
       image-rendering="optimizeQuality"
       font-family="sans-serif"
       stroke-linejoin="round"
       stroke="black"
       stroke-opacity="1"
       id="g156">
      <line
         y2="50"
         fill="none"
         x1="50"
         clip-path="url(#clipPath16)"
         x2="272"
         y1="60"
         id="line158" />
    </g>
    <g
       stroke-linecap="butt"
       font-size="11px"
       transform="translate(4,168)"
       fill-opacity="1"
       fill="black"
       text-rendering="geometricPrecision"
       image-rendering="optimizeQuality"
       font-family="sans-serif"
       stroke-linejoin="round"
       stroke="black"
       stroke-opacity="1"
       id="g160">
      <line
         y2="50"
         fill="none"
         x1="356"
         clip-path="url(#clipPath18)"
         x2="50"
         y1="141"
         id="line162" />
    </g>
    <g
       stroke-linecap="butt"
       font-size="11px"
       transform="translate(4,168)"
       fill-opacity="1"
       fill="black"
       text-rendering="geometricPrecision"
       image-rendering="optimizeQuality"
       font-family="sans-serif"
       stroke-linejoin="round"
       stroke="black"
       stroke-opacity="1"
       id="g164">
      <line
         y2="211"
         fill="none"
         x1="50"
         clip-path="url(#clipPath20)"
         x2="236"
         y1="50"
         id="line166" />
    </g>
  </g>
</svg>
